<svg id="visual" viewBox="0 0 4000 1080" width="4000" height="1080" xmlns="http://www.w3.org/2000/svg" xmlns:xlink="http://www.w3.org/1999/xlink" version="1.1"><path d="M0 217L364 217L364 228L727 228L727 77L1091 77L1091 174L1455 174L1455 87L1818 87L1818 109L2182 109L2182 131L2545 131L2545 195L2909 195L2909 228L3273 228L3273 206L3636 206L3636 77L4000 77L4000 206L4000 0L4000 0L3636 0L3636 0L3273 0L3273 0L2909 0L2909 0L2545 0L2545 0L2182 0L2182 0L1818 0L1818 0L1455 0L1455 0L1091 0L1091 0L727 0L727 0L364 0L364 0L0 0Z" fill="#1e1b4b"></path><path d="M0 357L364 357L364 379L727 379L727 303L1091 303L1091 303L1455 303L1455 271L1818 271L1818 293L2182 293L2182 401L2545 401L2545 422L2909 422L2909 411L3273 411L3273 433L3636 433L3636 293L4000 293L4000 422L4000 204L4000 75L3636 75L3636 204L3273 204L3273 226L2909 226L2909 193L2545 193L2545 129L2182 129L2182 107L1818 107L1818 85L1455 85L1455 172L1091 172L1091 75L727 75L727 226L364 226L364 215L0 215Z" fill="#261e5e"></path><path d="M0 757L364 757L364 725L727 725L727 573L1091 573L1091 681L1455 681L1455 519L1818 519L1818 563L2182 563L2182 638L2545 638L2545 681L2909 681L2909 800L3273 800L3273 627L3636 627L3636 487L4000 487L4000 768L4000 420L4000 291L3636 291L3636 431L3273 431L3273 409L2909 409L2909 420L2545 420L2545 399L2182 399L2182 291L1818 291L1818 269L1455 269L1455 301L1091 301L1091 301L727 301L727 377L364 377L364 355L0 355Z" fill="#301f71"></path><path d="M0 822L364 822L364 843L727 843L727 714L1091 714L1091 811L1455 811L1455 703L1818 703L1818 627L2182 627L2182 725L2545 725L2545 865L2909 865L2909 908L3273 908L3273 703L3636 703L3636 627L4000 627L4000 941L4000 766L4000 485L3636 485L3636 625L3273 625L3273 798L2909 798L2909 679L2545 679L2545 636L2182 636L2182 561L1818 561L1818 517L1455 517L1455 679L1091 679L1091 571L727 571L727 723L364 723L364 755L0 755Z" fill="#3d1f83"></path><path d="M0 1081L364 1081L364 1081L727 1081L727 1081L1091 1081L1091 1081L1455 1081L1455 1081L1818 1081L1818 1081L2182 1081L2182 1081L2545 1081L2545 1081L2909 1081L2909 1081L3273 1081L3273 1081L3636 1081L3636 1081L4000 1081L4000 1081L4000 939L4000 625L3636 625L3636 701L3273 701L3273 906L2909 906L2909 863L2545 863L2545 723L2182 723L2182 625L1818 625L1818 701L1455 701L1455 809L1091 809L1091 712L727 712L727 841L364 841L364 820L0 820Z" fill="#4c1d95"></path></svg>